<?xml version="1.0" encoding="UTF-8"?> <svg xmlns="http://www.w3.org/2000/svg" width="309" height="366" viewBox="0 0 309 366" fill="none"><mask id="mask0" maskUnits="userSpaceOnUse" x="2" y="2" width="305" height="362"><rect x="2" y="2" width="305" height="362" fill="#C4C4C4"></rect></mask><g mask="url(#mask0)"><mask id="mask1" maskUnits="userSpaceOnUse" x="-122" y="-119" width="500" height="494"><rect x="-122" y="-119" width="500" height="493.421" fill="white"></rect></mask><g mask="url(#mask1)"><rect x="-122" y="-119" width="501.645" height="493.421" fill="white"></rect><line x1="14.8881" y1="374.421" x2="14.8881" y2="-119" stroke="#E0E0E0" stroke-width="1.64474"></line><line x1="29.2993" y1="374.421" x2="29.2993" y2="-119" stroke="#E0E0E0" stroke-width="0.822368"></line><line x1="43.2993" y1="374.421" x2="43.2993" y2="-119" stroke="#E0E0E0" stroke-width="0.822368"></line><line x1="57.2993" y1="374.421" x2="57.2993" y2="-119" stroke="#E0E0E0" stroke-width="0.822368"></line><line x1="70.8881" y1="374.421" x2="70.8881" y2="-119" stroke="#E0E0E0" stroke-width="1.64474"></line><line x1="85.2993" y1="374.421" x2="85.2993" y2="-119" stroke="#E0E0E0" stroke-width="0.822368"></line><line x1="99.2993" y1="374.421" x2="99.2993" y2="-119" stroke="#E0E0E0" stroke-width="0.822368"></line><line x1="113.299" y1="374.421" x2="113.299" y2="-119" stroke="#E0E0E0" stroke-width="0.822368"></line><line x1="126.888" y1="374.421" x2="126.888" y2="-119" stroke="#E0E0E0" stroke-width="1.64474"></line><line x1="141.299" y1="374.421" x2="141.299" y2="-119" stroke="#E0E0E0" stroke-width="0.822368"></line><line x1="155.299" y1="374.421" x2="155.299" y2="-119" stroke="#E0E0E0" stroke-width="0.822368"></line><line x1="169.299" y1="374.421" x2="169.299" y2="-119" stroke="#E0E0E0" stroke-width="0.822368"></line><line x1="182.888" y1="374.421" x2="182.888" y2="-119" stroke="#E0E0E0" stroke-width="1.64474"></line><line x1="197.299" y1="374.421" x2="197.299" y2="-119" stroke="#E0E0E0" stroke-width="0.822368"></line><line x1="211.299" y1="374.421" x2="211.299" y2="-119" stroke="#E0E0E0" stroke-width="0.822368"></line><line x1="225.299" y1="374.421" x2="225.299" y2="-119" stroke="#E0E0E0" stroke-width="0.822368"></line><line x1="238.888" y1="374.421" x2="238.888" y2="-119" stroke="#E0E0E0" stroke-width="1.64474"></line><line x1="253.299" y1="374.421" x2="253.299" y2="-119" stroke="#E0E0E0" stroke-width="0.822368"></line><line x1="267.299" y1="374.421" x2="267.299" y2="-119" stroke="#E0E0E0" stroke-width="0.822368"></line><line x1="281.299" y1="374.421" x2="281.299" y2="-119" stroke="#E0E0E0" stroke-width="0.822368"></line><line x1="294.888" y1="374.421" x2="294.888" y2="-119" stroke="#E0E0E0" stroke-width="1.64474"></line><line x1="381.29" y1="350.841" x2="-131.868" y2="350.841" stroke="#E0E0E0" stroke-width="1.64"></line><line x1="381.29" y1="336.433" x2="-131.868" y2="336.433" stroke="#E0E0E0" stroke-width="0.822368"></line><line x1="381.29" y1="322.433" x2="-131.868" y2="322.433" stroke="#E0E0E0" stroke-width="0.822368"></line><line x1="381.29" y1="308.433" x2="-131.868" y2="308.433" stroke="#E0E0E0" stroke-width="0.822368"></line><line x1="381.29" y1="294.844" x2="-131.868" y2="294.844" stroke="#E0E0E0" stroke-width="1.64474"></line><line x1="381.29" y1="280.433" x2="-131.868" y2="280.433" stroke="#E0E0E0" stroke-width="0.822368"></line><line x1="381.29" y1="266.433" x2="-131.868" y2="266.433" stroke="#E0E0E0" stroke-width="0.822368"></line><line x1="381.29" y1="252.433" x2="-131.868" y2="252.433" stroke="#E0E0E0" stroke-width="0.822368"></line><line x1="381.29" y1="238.844" x2="-131.868" y2="238.844" stroke="#E0E0E0" stroke-width="1.64474"></line><line x1="381.29" y1="224.433" x2="-131.868" y2="224.433" stroke="#E0E0E0" stroke-width="0.822368"></line><line x1="381.29" y1="210.433" x2="-131.868" y2="210.433" stroke="#E0E0E0" stroke-width="0.822368"></line><line x1="381.29" y1="196.433" x2="-131.868" y2="196.433" stroke="#E0E0E0" stroke-width="0.822368"></line><line x1="381.29" y1="182.844" x2="-131.868" y2="182.844" stroke="#E0E0E0" stroke-width="1.64474"></line><line x1="381.29" y1="168.433" x2="-131.868" y2="168.433" stroke="#E0E0E0" stroke-width="0.822368"></line><line x1="381.29" y1="154.433" x2="-131.868" y2="154.433" stroke="#E0E0E0" stroke-width="0.822368"></line><line x1="381.29" y1="140.433" x2="-131.868" y2="140.433" stroke="#E0E0E0" stroke-width="0.822368"></line><line x1="381.29" y1="126.844" x2="-131.868" y2="126.844" stroke="#E0E0E0" stroke-width="1.64474"></line><line x1="381.29" y1="112.433" x2="-131.868" y2="112.433" stroke="#E0E0E0" stroke-width="0.822368"></line><line x1="381.29" y1="98.4327" x2="-131.868" y2="98.4327" stroke="#E0E0E0" stroke-width="0.822368"></line><line x1="381.29" y1="84.4327" x2="-131.868" y2="84.4327" stroke="#E0E0E0" stroke-width="0.822368"></line><line x1="381.29" y1="70.8439" x2="-131.868" y2="70.8438" stroke="#E0E0E0" stroke-width="1.64474"></line><line x1="381.29" y1="56.4327" x2="-131.868" y2="56.4327" stroke="#E0E0E0" stroke-width="0.822368"></line><line x1="381.29" y1="42.4327" x2="-131.868" y2="42.4327" stroke="#E0E0E0" stroke-width="0.822368"></line><line x1="381.29" y1="28.4327" x2="-131.868" y2="28.4327" stroke="#E0E0E0" stroke-width="0.822368"></line><line x1="381.29" y1="14.8439" x2="-131.868" y2="14.8439" stroke="#E0E0E0" stroke-width="1.64474"></line></g><path d="M58 -6.5C124 449 190.5 415.5 252 -6.5" stroke="#398CDA" stroke-width="2"></path><line x1="126.5" y1="-80" x2="126.5" y2="369" stroke="#9E9E9E" stroke-width="3"></line><line x1="-67" y1="71.5" x2="312" y2="71.5" stroke="#9E9E9E" stroke-width="3"></line></g><path d="M119.634 80.6895C119.634 81.3503 119.541 81.9671 119.355 82.54C119.245 82.8916 119.095 83.1797 118.906 83.4043C118.721 83.6289 118.509 83.8079 118.271 83.9414C118.034 84.0716 117.775 84.1367 117.495 84.1367C117.176 84.1367 116.888 84.0553 116.631 83.8926C116.374 83.7298 116.146 83.4971 115.947 83.1943C115.804 82.973 115.679 82.6784 115.571 82.3105C115.431 81.8125 115.361 81.2982 115.361 80.7676C115.361 80.0482 115.462 79.3874 115.664 78.7852C115.83 78.2871 116.082 77.9062 116.421 77.6426C116.759 77.3757 117.118 77.2422 117.495 77.2422C117.879 77.2422 118.237 77.374 118.569 77.6377C118.905 77.8981 119.15 78.2497 119.307 78.6924C119.525 79.3011 119.634 79.9668 119.634 80.6895ZM118.13 80.6797C118.13 79.5208 118.123 78.8454 118.11 78.6533C118.078 78.2008 118 77.8949 117.876 77.7354C117.795 77.6312 117.663 77.5791 117.48 77.5791C117.34 77.5791 117.23 77.6182 117.148 77.6963C117.028 77.8102 116.947 78.012 116.904 78.3018C116.862 78.5882 116.841 79.5924 116.841 81.3145C116.841 82.252 116.873 82.8802 116.938 83.1992C116.987 83.4303 117.057 83.585 117.148 83.6631C117.24 83.7412 117.36 83.7803 117.51 83.7803C117.673 83.7803 117.795 83.7282 117.876 83.624C118.013 83.4417 118.091 83.1602 118.11 82.7793L118.13 80.6797Z" fill="#757575"></path><path d="M114.091 239.208H111.244V238.197H114.091V239.208ZM119.177 234.242V234.379C118.588 234.529 118.115 234.722 117.756 234.96C117.402 235.194 117.12 235.481 116.912 235.819C116.707 236.155 116.547 236.571 116.433 237.069C116.576 236.972 116.695 236.908 116.79 236.879C117.001 236.814 117.214 236.781 117.429 236.781C117.924 236.781 118.336 236.962 118.665 237.323C118.997 237.681 119.163 238.171 119.163 238.793C119.163 239.229 119.073 239.63 118.894 239.994C118.715 240.359 118.461 240.64 118.132 240.839C117.804 241.037 117.452 241.137 117.078 241.137C116.671 241.137 116.295 241.026 115.95 240.805C115.605 240.58 115.335 240.253 115.139 239.823C114.947 239.394 114.851 238.926 114.851 238.422C114.851 237.68 115.029 236.99 115.383 236.352C115.741 235.71 116.248 235.201 116.902 234.823C117.56 234.442 118.318 234.249 119.177 234.242ZM116.37 237.465C116.344 237.914 116.331 238.243 116.331 238.451C116.331 238.9 116.373 239.335 116.458 239.755C116.546 240.175 116.664 240.469 116.814 240.639C116.921 240.759 117.048 240.819 117.195 240.819C117.345 240.819 117.478 240.733 117.595 240.561C117.713 240.385 117.771 240.03 117.771 239.496C117.771 238.598 117.662 237.978 117.444 237.636C117.304 237.414 117.115 237.304 116.878 237.304C116.747 237.304 116.578 237.357 116.37 237.465Z" fill="#757575"></path><path d="M114.091 295.208H111.244V294.197H114.091V295.208ZM117.888 293.26C118.354 293.602 118.676 293.921 118.855 294.217C119.037 294.51 119.129 294.847 119.129 295.228C119.129 295.761 118.927 296.214 118.523 296.585C118.123 296.953 117.577 297.137 116.887 297.137C116.233 297.137 115.727 296.976 115.369 296.653C115.011 296.331 114.832 295.937 114.832 295.472C114.832 295.117 114.934 294.806 115.139 294.539C115.348 294.272 115.693 294.028 116.174 293.807C115.65 293.406 115.313 293.079 115.164 292.825C115.017 292.571 114.944 292.277 114.944 291.941C114.944 291.499 115.131 291.11 115.505 290.774C115.883 290.436 116.399 290.267 117.053 290.267C117.685 290.267 118.17 290.416 118.508 290.716C118.85 291.012 119.021 291.368 119.021 291.785C119.021 292.098 118.928 292.374 118.743 292.615C118.56 292.853 118.276 293.068 117.888 293.26ZM117.517 293.011C117.638 292.848 117.727 292.666 117.786 292.464C117.844 292.262 117.874 292.041 117.874 291.8C117.874 291.377 117.782 291.053 117.6 290.828C117.463 290.656 117.275 290.569 117.034 290.569C116.816 290.569 116.63 290.649 116.477 290.809C116.324 290.965 116.248 291.16 116.248 291.395C116.248 291.632 116.332 291.88 116.502 292.137C116.674 292.391 117.013 292.682 117.517 293.011ZM116.541 294.041C116.44 294.132 116.368 294.215 116.326 294.29C116.261 294.404 116.202 294.57 116.15 294.788C116.098 295.006 116.072 295.234 116.072 295.472C116.072 295.778 116.111 296.035 116.189 296.243C116.267 296.448 116.378 296.596 116.521 296.688C116.668 296.779 116.817 296.824 116.97 296.824C117.208 296.824 117.408 296.738 117.571 296.565C117.734 296.39 117.815 296.15 117.815 295.848C117.815 295.216 117.39 294.614 116.541 294.041Z" fill="#757575"></path><path d="M109.091 351.208H106.244V350.197H109.091V351.208ZM112.737 346.242V351.657C112.737 352.064 112.755 352.325 112.791 352.438C112.826 352.549 112.901 352.64 113.015 352.712C113.129 352.784 113.311 352.819 113.562 352.819H113.713V353H110.227V352.819H110.403C110.686 352.819 110.888 352.787 111.008 352.722C111.129 352.657 111.21 352.567 111.253 352.453C111.295 352.339 111.316 352.074 111.316 351.657V348.225C111.316 347.919 111.301 347.728 111.272 347.653C111.243 347.575 111.187 347.51 111.106 347.458C111.028 347.403 110.937 347.375 110.833 347.375C110.667 347.375 110.465 347.427 110.227 347.531L110.139 347.355L112.576 346.242H112.737ZM119.264 349.689C119.264 350.35 119.171 350.967 118.986 351.54C118.875 351.892 118.725 352.18 118.536 352.404C118.351 352.629 118.139 352.808 117.902 352.941C117.664 353.072 117.405 353.137 117.125 353.137C116.806 353.137 116.518 353.055 116.261 352.893C116.004 352.73 115.776 352.497 115.577 352.194C115.434 351.973 115.309 351.678 115.201 351.311C115.061 350.812 114.991 350.298 114.991 349.768C114.991 349.048 115.092 348.387 115.294 347.785C115.46 347.287 115.712 346.906 116.051 346.643C116.39 346.376 116.748 346.242 117.125 346.242C117.509 346.242 117.867 346.374 118.199 346.638C118.535 346.898 118.78 347.25 118.937 347.692C119.155 348.301 119.264 348.967 119.264 349.689ZM117.76 349.68C117.76 348.521 117.753 347.845 117.74 347.653C117.708 347.201 117.63 346.895 117.506 346.735C117.425 346.631 117.293 346.579 117.111 346.579C116.971 346.579 116.86 346.618 116.779 346.696C116.658 346.81 116.577 347.012 116.534 347.302C116.492 347.588 116.471 348.592 116.471 350.314C116.471 351.252 116.503 351.88 116.569 352.199C116.617 352.43 116.687 352.585 116.779 352.663C116.87 352.741 116.99 352.78 117.14 352.78C117.303 352.78 117.425 352.728 117.506 352.624C117.643 352.442 117.721 352.16 117.74 351.779L117.76 349.68Z" fill="#757575"></path><path d="M114.091 183.208H111.244V182.197H114.091V183.208ZM114.729 182.505L117.874 178.242H118.469V182.505H119.075V183.516H118.469V185H117.127V183.516H114.729V182.505ZM115.203 182.505H117.127V179.893L115.203 182.505Z" fill="#757575"></path><path d="M114.091 127.208H111.244V126.197H114.091V127.208ZM118.621 129H114.724V128.893C115.919 127.47 116.643 126.513 116.897 126.021C117.154 125.53 117.283 125.05 117.283 124.581C117.283 124.239 117.177 123.956 116.965 123.731C116.754 123.504 116.495 123.39 116.189 123.39C115.688 123.39 115.299 123.64 115.022 124.142L114.841 124.078C115.017 123.453 115.284 122.991 115.642 122.691C116 122.392 116.414 122.242 116.882 122.242C117.218 122.242 117.524 122.32 117.8 122.477C118.077 122.633 118.294 122.848 118.45 123.121C118.606 123.391 118.684 123.645 118.684 123.883C118.684 124.316 118.564 124.755 118.323 125.201C117.994 125.803 117.276 126.643 116.17 127.721H117.6C117.952 127.721 118.18 127.706 118.284 127.677C118.391 127.647 118.479 127.599 118.547 127.53C118.616 127.459 118.705 127.311 118.816 127.086H118.992L118.621 129Z" fill="#757575"></path><path d="M119.141 17H115.244V16.8926C116.439 15.4701 117.163 14.513 117.417 14.0215C117.674 13.5299 117.803 13.0498 117.803 12.5811C117.803 12.2393 117.697 11.9561 117.485 11.7314C117.274 11.5036 117.015 11.3896 116.709 11.3896C116.208 11.3896 115.819 11.6403 115.542 12.1416L115.361 12.0781C115.537 11.4531 115.804 10.9909 116.162 10.6914C116.52 10.3919 116.934 10.2422 117.402 10.2422C117.738 10.2422 118.044 10.3203 118.32 10.4766C118.597 10.6328 118.813 10.8477 118.97 11.1211C119.126 11.3913 119.204 11.6452 119.204 11.8828C119.204 12.3158 119.084 12.7552 118.843 13.2012C118.514 13.8034 117.796 14.6432 116.689 15.7207H118.12C118.472 15.7207 118.7 15.7061 118.804 15.6768C118.911 15.6475 118.999 15.5986 119.067 15.5303C119.136 15.4587 119.225 15.3105 119.336 15.0859H119.512L119.141 17Z" fill="#757575"></path><path d="M184.141 84H180.244V83.8926C181.439 82.4701 182.163 81.513 182.417 81.0215C182.674 80.5299 182.803 80.0498 182.803 79.5811C182.803 79.2393 182.697 78.9561 182.485 78.7314C182.274 78.5036 182.015 78.3896 181.709 78.3896C181.208 78.3896 180.819 78.6403 180.542 79.1416L180.361 79.0781C180.537 78.4531 180.804 77.9909 181.162 77.6914C181.52 77.3919 181.934 77.2422 182.402 77.2422C182.738 77.2422 183.044 77.3203 183.32 77.4766C183.597 77.6328 183.813 77.8477 183.97 78.1211C184.126 78.3913 184.204 78.6452 184.204 78.8828C184.204 79.3158 184.084 79.7552 183.843 80.2012C183.514 80.8034 182.796 81.6432 181.689 82.7207H183.12C183.472 82.7207 183.7 82.7061 183.804 82.6768C183.911 82.6475 183.999 82.5986 184.067 82.5303C184.136 82.4587 184.225 82.3105 184.336 82.0859H184.512L184.141 84Z" fill="#757575"></path><path d="M236.249 81.5049L239.394 77.2422H239.989V81.5049H240.595V82.5156H239.989V84H238.646V82.5156H236.249V81.5049ZM236.723 81.5049H238.646V78.8926L236.723 81.5049Z" fill="#757575"></path><path d="M296.697 77.2422V77.3789C296.108 77.5286 295.634 77.7223 295.276 77.96C294.922 78.1943 294.64 78.4808 294.432 78.8193C294.227 79.1546 294.067 79.5713 293.953 80.0693C294.096 79.9717 294.215 79.9082 294.31 79.8789C294.521 79.8138 294.734 79.7812 294.949 79.7812C295.444 79.7812 295.856 79.9619 296.185 80.3232C296.517 80.6813 296.683 81.1712 296.683 81.793C296.683 82.2292 296.593 82.6296 296.414 82.9941C296.235 83.3587 295.981 83.6403 295.652 83.8389C295.324 84.0374 294.972 84.1367 294.598 84.1367C294.191 84.1367 293.815 84.026 293.47 83.8047C293.125 83.5801 292.854 83.2529 292.659 82.8232C292.467 82.3936 292.371 81.9264 292.371 81.4219C292.371 80.6797 292.549 79.9896 292.903 79.3516C293.261 78.7103 293.768 78.2008 294.422 77.8232C295.079 77.4424 295.838 77.2487 296.697 77.2422ZM293.89 80.4648C293.864 80.9141 293.851 81.2428 293.851 81.4512C293.851 81.9004 293.893 82.335 293.978 82.7549C294.065 83.1748 294.184 83.4694 294.334 83.6387C294.441 83.7591 294.568 83.8193 294.715 83.8193C294.865 83.8193 294.998 83.7331 295.115 83.5605C295.232 83.3848 295.291 83.0299 295.291 82.4961C295.291 81.5977 295.182 80.9775 294.964 80.6357C294.824 80.4144 294.635 80.3037 294.397 80.3037C294.267 80.3037 294.098 80.3574 293.89 80.4648Z" fill="#757575"></path><path d="M70.0908 82.208H67.2441V81.1973H70.0908V82.208ZM74.6207 84H70.7242V83.8926C71.9189 82.4701 72.6432 81.513 72.8971 81.0215C73.1542 80.5299 73.2828 80.0498 73.2828 79.5811C73.2828 79.2393 73.177 78.9561 72.9654 78.7314C72.7538 78.5036 72.4951 78.3896 72.1891 78.3896C71.6878 78.3896 71.2988 78.6403 71.0221 79.1416L70.8414 79.0781C71.0172 78.4531 71.2841 77.9909 71.6422 77.6914C72.0003 77.3919 72.4137 77.2422 72.8824 77.2422C73.2177 77.2422 73.5237 77.3203 73.8004 77.4766C74.0771 77.6328 74.2936 77.8477 74.4498 78.1211C74.6061 78.3913 74.6842 78.6452 74.6842 78.8828C74.6842 79.3158 74.5637 79.7552 74.3229 80.2012C73.9941 80.8034 73.2763 81.6432 72.1695 82.7207H73.6002C73.9518 82.7207 74.1796 82.7061 74.2838 82.6768C74.3912 82.6475 74.4791 82.5986 74.5475 82.5303C74.6158 82.4587 74.7053 82.3105 74.816 82.0859H74.9918L74.6207 84Z" fill="#757575"></path><path d="M15.0908 82.208H12.2441V81.1973H15.0908V82.208ZM15.7291 81.5049L18.8736 77.2422H19.4693V81.5049H20.0748V82.5156H19.4693V84H18.1266V82.5156H15.7291V81.5049ZM16.2027 81.5049H18.1266V78.8926L16.2027 81.5049Z" fill="#757575"></path><path d="M75.22 61.716C74.5853 60.68 74.1233 59.6347 73.834 58.58C73.554 57.516 73.414 56.4287 73.414 55.318C73.414 54.2073 73.554 53.1247 73.834 52.07C74.1233 51.006 74.5853 49.956 75.22 48.92L76.214 49.312C75.766 50.3667 75.4393 51.3747 75.234 52.336C75.0287 53.2973 74.926 54.2913 74.926 55.318C74.926 56.3353 75.0287 57.3293 75.234 58.3C75.4393 59.2613 75.766 60.2693 76.214 61.324L75.22 61.716ZM77.8331 55.836V54.688H81.8651V55.836H77.8331ZM84.1951 59V57.922L87.4851 54.394C87.9424 53.8993 88.2691 53.4513 88.4651 53.05C88.6704 52.6487 88.7731 52.2427 88.7731 51.832C88.7731 50.768 88.1477 50.236 86.8971 50.236C85.9451 50.236 85.0911 50.5953 84.3351 51.314L83.8171 50.208C84.1904 49.844 84.6664 49.5547 85.2451 49.34C85.8237 49.116 86.4257 49.004 87.0511 49.004C88.0684 49.004 88.8477 49.2373 89.3891 49.704C89.9397 50.1707 90.2151 50.838 90.2151 51.706C90.2151 52.294 90.0704 52.868 89.7811 53.428C89.5011 53.988 89.0577 54.5853 88.4511 55.22L86.0151 57.782H90.6071V59H84.1951ZM93.0896 60.722L92.4736 60.246C92.6883 60.0127 92.8469 59.798 92.9496 59.602C93.0523 59.406 93.1176 59.2053 93.1456 59H92.3756V57.334H94.0416V58.468C94.0416 58.8973 93.9716 59.2893 93.8316 59.644C93.6916 60.008 93.4443 60.3673 93.0896 60.722ZM103.05 59.126C101.902 59.126 101.024 58.692 100.418 57.824C99.8203 56.9467 99.5216 55.6913 99.5216 54.058C99.5216 52.3967 99.8203 51.1413 100.418 50.292C101.024 49.4333 101.902 49.004 103.05 49.004C104.207 49.004 105.084 49.4333 105.682 50.292C106.279 51.1413 106.578 52.392 106.578 54.044C106.578 55.6867 106.274 56.9467 105.668 57.824C105.07 58.692 104.198 59.126 103.05 59.126ZM103.05 57.922C103.759 57.922 104.286 57.6093 104.632 56.984C104.977 56.3587 105.15 55.3787 105.15 54.044C105.15 52.7093 104.977 51.7387 104.632 51.132C104.296 50.516 103.768 50.208 103.05 50.208C102.34 50.208 101.813 50.516 101.468 51.132C101.122 51.748 100.95 52.7187 100.95 54.044C100.95 55.3787 101.122 56.3587 101.468 56.984C101.813 57.6093 102.34 57.922 103.05 57.922ZM108.878 61.716L107.884 61.324C108.323 60.2507 108.645 59.2333 108.85 58.272C109.055 57.3107 109.158 56.326 109.158 55.318C109.158 54.31 109.055 53.3253 108.85 52.364C108.645 51.4027 108.323 50.3853 107.884 49.312L108.878 48.92C109.513 49.9653 109.97 51.02 110.25 52.084C110.539 53.1387 110.684 54.2167 110.684 55.318C110.684 56.4287 110.539 57.516 110.25 58.58C109.97 59.6347 109.513 60.68 108.878 61.716Z" fill="#F57C00"></path><path d="M206.22 61.716C205.585 60.68 205.123 59.6347 204.834 58.58C204.554 57.516 204.414 56.4287 204.414 55.318C204.414 54.2073 204.554 53.1247 204.834 52.07C205.123 51.006 205.585 49.956 206.22 48.92L207.214 49.312C206.766 50.3667 206.439 51.3747 206.234 52.336C206.029 53.2973 205.926 54.2913 205.926 55.318C205.926 56.3353 206.029 57.3293 206.234 58.3C206.439 59.2613 206.766 60.2693 207.214 61.324L206.22 61.716ZM212.949 59V56.998H208.511V55.92L213.201 49.13H214.391V55.78H215.833V56.998H214.391V59H212.949ZM212.949 55.78V51.398L209.953 55.78H212.949ZM217.938 60.722L217.322 60.246C217.536 60.0127 217.695 59.798 217.798 59.602C217.9 59.406 217.966 59.2053 217.994 59H217.224V57.334H218.89V58.468C218.89 58.8973 218.82 59.2893 218.68 59.644C218.54 60.008 218.292 60.3673 217.938 60.722ZM227.898 59.126C226.75 59.126 225.872 58.692 225.266 57.824C224.668 56.9467 224.37 55.6913 224.37 54.058C224.37 52.3967 224.668 51.1413 225.266 50.292C225.872 49.4333 226.75 49.004 227.898 49.004C229.055 49.004 229.932 49.4333 230.53 50.292C231.127 51.1413 231.426 52.392 231.426 54.044C231.426 55.6867 231.122 56.9467 230.516 57.824C229.918 58.692 229.046 59.126 227.898 59.126ZM227.898 57.922C228.607 57.922 229.134 57.6093 229.48 56.984C229.825 56.3587 229.998 55.3787 229.998 54.044C229.998 52.7093 229.825 51.7387 229.48 51.132C229.144 50.516 228.616 50.208 227.898 50.208C227.188 50.208 226.661 50.516 226.316 51.132C225.97 51.748 225.798 52.7187 225.798 54.044C225.798 55.3787 225.97 56.3587 226.316 56.984C226.661 57.6093 227.188 57.922 227.898 57.922ZM233.726 61.716L232.732 61.324C233.171 60.2507 233.493 59.2333 233.698 58.272C233.904 57.3107 234.006 56.326 234.006 55.318C234.006 54.31 233.904 53.3253 233.698 52.364C233.493 51.4027 233.171 50.3853 232.732 49.312L233.726 48.92C234.361 49.9653 234.818 51.02 235.098 52.084C235.388 53.1387 235.532 54.2167 235.532 55.318C235.532 56.4287 235.388 57.516 235.098 58.58C234.818 59.6347 234.361 60.68 233.726 61.716Z" fill="#F57C00"></path><path d="M132.22 289.716C131.585 288.68 131.123 287.635 130.834 286.58C130.554 285.516 130.414 284.429 130.414 283.318C130.414 282.207 130.554 281.125 130.834 280.07C131.123 279.006 131.585 277.956 132.22 276.92L133.214 277.312C132.766 278.367 132.439 279.375 132.234 280.336C132.029 281.297 131.926 282.291 131.926 283.318C131.926 284.335 132.029 285.329 132.234 286.3C132.439 287.261 132.766 288.269 133.214 289.324L132.22 289.716ZM138.053 287.126C136.905 287.126 136.028 286.692 135.421 285.824C134.824 284.947 134.525 283.691 134.525 282.058C134.525 280.397 134.824 279.141 135.421 278.292C136.028 277.433 136.905 277.004 138.053 277.004C139.21 277.004 140.088 277.433 140.685 278.292C141.282 279.141 141.581 280.392 141.581 282.044C141.581 283.687 141.278 284.947 140.671 285.824C140.074 286.692 139.201 287.126 138.053 287.126ZM138.053 285.922C138.762 285.922 139.29 285.609 139.635 284.984C139.98 284.359 140.153 283.379 140.153 282.044C140.153 280.709 139.98 279.739 139.635 279.132C139.299 278.516 138.772 278.208 138.053 278.208C137.344 278.208 136.816 278.516 136.471 279.132C136.126 279.748 135.953 280.719 135.953 282.044C135.953 283.379 136.126 284.359 136.471 284.984C136.816 285.609 137.344 285.922 138.053 285.922ZM143.938 288.722L143.322 288.246C143.536 288.013 143.695 287.798 143.798 287.602C143.9 287.406 143.966 287.205 143.994 287H143.224V285.334H144.89V286.468C144.89 286.897 144.82 287.289 144.68 287.644C144.54 288.008 144.292 288.367 143.938 288.722ZM150.678 283.836V282.688H154.71V283.836H150.678ZM160.05 287.126C158.92 287.126 158.038 286.883 157.404 286.398C156.778 285.913 156.466 285.236 156.466 284.368C156.466 283.761 156.624 283.248 156.942 282.828C157.268 282.399 157.693 282.105 158.216 281.946C157.749 281.75 157.38 281.451 157.11 281.05C156.839 280.639 156.704 280.168 156.704 279.636C156.704 278.815 157.007 278.171 157.614 277.704C158.22 277.237 159.032 277.004 160.05 277.004C161.076 277.004 161.893 277.237 162.5 277.704C163.106 278.171 163.41 278.815 163.41 279.636C163.41 280.168 163.27 280.639 162.99 281.05C162.719 281.461 162.35 281.759 161.884 281.946C162.416 282.105 162.84 282.399 163.158 282.828C163.475 283.248 163.634 283.761 163.634 284.368C163.634 285.236 163.316 285.913 162.682 286.398C162.056 286.883 161.179 287.126 160.05 287.126ZM160.05 281.428C160.675 281.428 161.16 281.283 161.506 280.994C161.86 280.695 162.038 280.289 162.038 279.776C162.038 279.272 161.86 278.875 161.506 278.586C161.16 278.297 160.675 278.152 160.05 278.152C159.424 278.152 158.939 278.297 158.594 278.586C158.248 278.875 158.076 279.272 158.076 279.776C158.076 280.289 158.248 280.695 158.594 280.994C158.939 281.283 159.424 281.428 160.05 281.428ZM160.05 285.978C161.534 285.978 162.276 285.409 162.276 284.27C162.276 283.141 161.534 282.576 160.05 282.576C159.322 282.576 158.766 282.716 158.384 282.996C158.01 283.276 157.824 283.701 157.824 284.27C157.824 285.409 158.566 285.978 160.05 285.978ZM165.878 289.716L164.884 289.324C165.323 288.251 165.645 287.233 165.85 286.272C166.055 285.311 166.158 284.326 166.158 283.318C166.158 282.31 166.055 281.325 165.85 280.364C165.645 279.403 165.323 278.385 164.884 277.312L165.878 276.92C166.513 277.965 166.97 279.02 167.25 280.084C167.539 281.139 167.684 282.217 167.684 283.318C167.684 284.429 167.539 285.516 167.25 286.58C166.97 287.635 166.513 288.68 165.878 289.716Z" fill="#F57C00"></path><path d="M140.22 345.716C139.585 344.68 139.123 343.635 138.834 342.58C138.554 341.516 138.414 340.429 138.414 339.318C138.414 338.207 138.554 337.125 138.834 336.07C139.123 335.006 139.585 333.956 140.22 332.92L141.214 333.312C140.766 334.367 140.439 335.375 140.234 336.336C140.029 337.297 139.926 338.291 139.926 339.318C139.926 340.335 140.029 341.329 140.234 342.3C140.439 343.261 140.766 344.269 141.214 345.324L140.22 345.716ZM143.491 343V341.782H145.731V334.81L143.981 335.902L143.393 334.824L146.151 333.13H147.173V341.782H149.273V343H143.491ZM151.938 344.722L151.322 344.246C151.536 344.013 151.695 343.798 151.798 343.602C151.9 343.406 151.966 343.205 151.994 343H151.224V341.334H152.89V342.468C152.89 342.897 152.82 343.289 152.68 343.644C152.54 344.008 152.292 344.367 151.938 344.722ZM158.678 339.836V338.688H162.71V339.836H158.678ZM167.336 343.126C166.822 343.126 166.309 343.023 165.796 342.818C165.292 342.613 164.862 342.333 164.508 341.978L165.012 340.872C165.357 341.208 165.73 341.465 166.132 341.642C166.533 341.81 166.939 341.894 167.35 341.894C168.227 341.894 168.894 341.581 169.352 340.956C169.818 340.321 170.052 339.379 170.052 338.128V337.554C169.865 338.123 169.538 338.571 169.072 338.898C168.614 339.225 168.078 339.388 167.462 339.388C166.892 339.388 166.384 339.253 165.936 338.982C165.488 338.711 165.138 338.343 164.886 337.876C164.634 337.4 164.508 336.859 164.508 336.252C164.508 335.617 164.643 335.057 164.914 334.572C165.184 334.077 165.558 333.695 166.034 333.424C166.519 333.144 167.074 333.004 167.7 333.004C168.894 333.004 169.814 333.429 170.458 334.278C171.111 335.127 171.438 336.317 171.438 337.848C171.438 339.537 171.074 340.839 170.346 341.754C169.627 342.669 168.624 343.126 167.336 343.126ZM167.798 338.198C168.367 338.198 168.829 338.016 169.184 337.652C169.538 337.279 169.716 336.793 169.716 336.196C169.716 335.599 169.538 335.113 169.184 334.74C168.829 334.357 168.367 334.166 167.798 334.166C167.228 334.166 166.766 334.357 166.412 334.74C166.057 335.113 165.88 335.599 165.88 336.196C165.88 336.793 166.057 337.279 166.412 337.652C166.766 338.016 167.228 338.198 167.798 338.198ZM173.878 345.716L172.884 345.324C173.323 344.251 173.645 343.233 173.85 342.272C174.055 341.311 174.158 340.326 174.158 339.318C174.158 338.31 174.055 337.325 173.85 336.364C173.645 335.403 173.323 334.385 172.884 333.312L173.878 332.92C174.513 333.965 174.97 335.02 175.25 336.084C175.539 337.139 175.684 338.217 175.684 339.318C175.684 340.429 175.539 341.516 175.25 342.58C174.97 343.635 174.513 344.68 173.878 345.716Z" fill="#F57C00"></path><circle cx="155" cy="323" r="5" fill="#F57C00"></circle><circle cx="127" cy="294" r="5" fill="#F57C00"></circle><circle cx="71" cy="71" r="5" fill="#F57C00"></circle><circle cx="239" cy="71" r="5" fill="#F57C00"></circle><rect x="1" y="1" width="307" height="364" stroke="#7C4DFF" stroke-width="2"></rect><path fill-rule="evenodd" clip-rule="evenodd" d="M224.963 87.753C224.308 87.569 223.664 87.5989 223.029 87.8416C222.441 88.0493 221.979 88.4435 221.519 88.8364C221.43 88.9125 221.34 88.9886 221.25 89.0633C220.812 89.4267 220.38 89.7994 219.949 90.172C219.436 90.6157 218.922 91.0595 218.396 91.4877C217.037 92.5943 215.672 93.6929 214.306 94.7915C213.418 95.5056 212.531 96.2198 211.645 96.9361C211.339 97.1836 211.05 97.4532 210.772 97.7319C210.414 98.0916 210.551 98.6254 211.034 98.864C211.815 99.2489 212.515 99.2222 213.223 98.6375C215.149 97.0463 217.099 95.4861 219.054 93.9303C219.913 93.2465 220.799 92.5968 221.684 91.9477L221.727 91.9163C221.795 91.8658 221.94 91.9047 222.053 91.9351C222.063 91.9379 222.073 91.9406 222.083 91.9431C222.116 91.9514 222.138 92.0604 222.139 92.124C222.139 92.1548 222.14 92.1857 222.141 92.2166C222.144 92.3829 222.147 92.5502 222.125 92.7132C221.606 96.4916 221.084 100.269 220.561 104.047C220.543 104.177 220.522 104.306 220.501 104.435C220.458 104.696 220.415 104.956 220.4 105.218C220.379 105.576 220.587 105.839 220.897 106.002C221.069 106.092 221.259 106.167 221.449 106.203C222.343 106.37 222.872 106.055 223.05 105.191C223.249 104.225 223.417 103.252 223.547 102.275C223.875 99.8136 224.186 97.3496 224.496 94.8856C224.539 94.5443 224.582 94.2029 224.625 93.8616C224.79 92.5538 224.979 91.256 225.555 90.0451C225.694 89.7535 225.763 89.4225 225.827 89.1024C225.952 88.478 225.585 87.9272 224.963 87.753ZM197.258 111.483C200.236 111.31 203.128 110.739 205.921 109.691C207.059 109.297 208.114 108.731 209.169 108.164C209.274 108.108 209.379 108.052 209.484 107.996C212.785 106.23 215.463 103.719 217.901 100.932C218.684 100.037 219.239 98.979 219.735 97.8991C219.942 97.4494 219.712 96.9826 219.222 96.794C218.495 96.5137 217.854 96.6702 217.476 97.2484C217.312 97.499 217.168 97.7631 217.025 98.027C216.98 98.1105 216.934 98.1939 216.888 98.2769C216.245 99.4365 215.455 100.483 214.498 101.402C214.254 101.637 214.013 101.875 213.772 102.112C213.216 102.661 212.661 103.209 212.068 103.714C207.998 107.185 203.307 109.255 197.973 109.781C194.1 110.162 190.219 110.082 186.343 109.792C185.784 109.75 185.229 109.656 184.674 109.563C184.385 109.514 184.095 109.465 183.805 109.424C183.753 109.416 183.701 109.408 183.649 109.401C183.376 109.36 183.101 109.319 182.828 109.322C182.56 109.326 182.32 109.455 182.237 109.749C182.16 110.025 182.21 110.298 182.438 110.46C182.698 110.645 182.992 110.841 183.296 110.895C183.448 110.923 183.601 110.951 183.753 110.979C184.766 111.164 185.782 111.351 186.806 111.421C190.287 111.662 193.772 111.685 197.258 111.483Z" fill="#F57C00"></path><path fill-rule="evenodd" clip-rule="evenodd" d="M84.3002 87.753C84.9558 87.569 85.5998 87.5989 86.2349 87.8416C86.8228 88.0493 87.2846 88.4435 87.7448 88.8364C87.8341 88.9125 87.9232 88.9886 88.0132 89.0633C88.4519 89.4267 88.8832 89.7994 89.3145 90.172C89.8281 90.6157 90.3417 91.0595 90.8677 91.4877C92.2266 92.5943 93.5922 93.6929 94.9577 94.7915C95.8454 95.5056 96.7332 96.2198 97.619 96.9361C97.9245 97.1836 98.214 97.4532 98.4916 97.7319C98.8493 98.0916 98.7126 98.6254 98.2292 98.864C97.4488 99.2489 96.7488 99.2222 96.0409 98.6375C94.1151 97.0463 92.1643 95.4861 90.21 93.9303C89.3508 93.2465 88.4649 92.5968 87.5799 91.9477L87.5371 91.9163C87.4688 91.8658 87.3239 91.9047 87.2111 91.9351C87.2007 91.9379 87.1906 91.9406 87.1809 91.9431C87.1473 91.9514 87.1257 92.0604 87.1246 92.124C87.1242 92.1548 87.1236 92.1857 87.123 92.2166C87.1198 92.3829 87.1166 92.5502 87.1392 92.7132C87.6574 96.4916 88.1798 100.269 88.7024 104.047C88.7202 104.177 88.7415 104.306 88.7628 104.435C88.8056 104.696 88.8484 104.956 88.8635 105.218C88.8844 105.576 88.6764 105.839 88.3665 106.002C88.1945 106.092 88.0051 106.167 87.8147 106.203C86.9204 106.37 86.3917 106.055 86.2135 105.191C86.0148 104.225 85.8471 103.252 85.7172 102.275C85.3884 99.8136 85.0779 97.3496 84.7674 94.8856C84.7244 94.5443 84.6814 94.2029 84.6384 93.8616C84.4733 92.5538 84.285 91.256 83.7086 90.0451C83.5697 89.7535 83.5005 89.4225 83.4364 89.1024C83.3119 88.478 83.6788 87.9272 84.3002 87.753ZM112.005 111.483C109.028 111.31 106.136 110.739 103.343 109.691C102.205 109.297 101.15 108.731 100.094 108.164C99.9895 108.108 99.8846 108.052 99.7797 107.996C96.4785 106.23 93.8011 103.719 91.3629 100.932C90.58 100.037 90.0244 98.979 89.5283 97.8991C89.3221 97.4494 89.5517 96.9826 90.0414 96.794C90.7689 96.5137 91.4093 96.6702 91.788 97.2484C91.9518 97.499 92.0954 97.7631 92.2387 98.027C92.2841 98.1105 92.3294 98.1939 92.3754 98.2769C93.0182 99.4365 93.8084 100.483 94.7655 101.402C95.0095 101.637 95.2505 101.875 95.4916 102.112C96.0472 102.661 96.603 103.209 97.1952 103.714C101.266 107.185 105.957 109.255 111.291 109.781C115.163 110.162 119.045 110.082 122.92 109.792C123.479 109.75 124.034 109.656 124.589 109.563C124.879 109.514 125.168 109.465 125.458 109.424C125.51 109.416 125.562 109.408 125.614 109.401C125.888 109.36 126.163 109.319 126.436 109.322C126.703 109.326 126.943 109.455 127.026 109.749C127.104 110.025 127.053 110.298 126.826 110.46C126.566 110.645 126.272 110.841 125.968 110.895C125.815 110.923 125.663 110.951 125.511 110.979C124.498 111.164 123.481 111.351 122.458 111.421C118.977 111.662 115.491 111.685 112.005 111.483Z" fill="#F57C00"></path><path d="M134.17 114V105.198H136.366V106.746C136.798 105.702 137.722 105.126 139.138 105.018L139.822 104.964L139.966 106.872L138.67 106.998C137.194 107.142 136.456 107.898 136.456 109.266V114H134.17ZM145.242 114.18C144.33 114.18 143.538 113.994 142.866 113.622C142.194 113.25 141.672 112.722 141.3 112.038C140.928 111.342 140.742 110.526 140.742 109.59C140.742 108.654 140.928 107.844 141.3 107.16C141.672 106.476 142.194 105.948 142.866 105.576C143.538 105.204 144.33 105.018 145.242 105.018C146.154 105.018 146.946 105.204 147.618 105.576C148.29 105.948 148.812 106.476 149.184 107.16C149.556 107.844 149.742 108.654 149.742 109.59C149.742 110.526 149.556 111.342 149.184 112.038C148.812 112.722 148.29 113.25 147.618 113.622C146.946 113.994 146.154 114.18 145.242 114.18ZM145.242 112.47C145.914 112.47 146.454 112.23 146.862 111.75C147.27 111.258 147.474 110.538 147.474 109.59C147.474 108.63 147.27 107.916 146.862 107.448C146.454 106.968 145.914 106.728 145.242 106.728C144.57 106.728 144.03 106.968 143.622 107.448C143.214 107.916 143.01 108.63 143.01 109.59C143.01 110.538 143.214 111.258 143.622 111.75C144.03 112.23 144.57 112.47 145.242 112.47ZM155.763 114.18C154.851 114.18 154.059 113.994 153.387 113.622C152.715 113.25 152.193 112.722 151.821 112.038C151.449 111.342 151.263 110.526 151.263 109.59C151.263 108.654 151.449 107.844 151.821 107.16C152.193 106.476 152.715 105.948 153.387 105.576C154.059 105.204 154.851 105.018 155.763 105.018C156.675 105.018 157.467 105.204 158.139 105.576C158.811 105.948 159.333 106.476 159.705 107.16C160.077 107.844 160.263 108.654 160.263 109.59C160.263 110.526 160.077 111.342 159.705 112.038C159.333 112.722 158.811 113.25 158.139 113.622C157.467 113.994 156.675 114.18 155.763 114.18ZM155.763 112.47C156.435 112.47 156.975 112.23 157.383 111.75C157.791 111.258 157.995 110.538 157.995 109.59C157.995 108.63 157.791 107.916 157.383 107.448C156.975 106.968 156.435 106.728 155.763 106.728C155.091 106.728 154.551 106.968 154.143 107.448C153.735 107.916 153.531 108.63 153.531 109.59C153.531 110.538 153.735 111.258 154.143 111.75C154.551 112.23 155.091 112.47 155.763 112.47ZM166.215 114.18C163.887 114.18 162.723 113.028 162.723 110.724V106.89H161.031V105.198H162.723V102.57H164.973V105.198H167.637V106.89H164.973V110.598C164.973 111.174 165.099 111.606 165.351 111.894C165.603 112.182 166.011 112.326 166.575 112.326C166.743 112.326 166.917 112.308 167.097 112.272C167.277 112.224 167.463 112.176 167.655 112.128L167.997 113.784C167.781 113.904 167.505 114 167.169 114.072C166.845 114.144 166.527 114.18 166.215 114.18ZM172.463 114.18C171.719 114.18 171.023 114.09 170.375 113.91C169.727 113.73 169.187 113.472 168.755 113.136L169.331 111.66C169.775 111.96 170.273 112.194 170.825 112.362C171.377 112.518 171.929 112.596 172.481 112.596C173.057 112.596 173.483 112.5 173.759 112.308C174.047 112.104 174.191 111.84 174.191 111.516C174.191 111.012 173.819 110.688 173.075 110.544L171.275 110.202C169.751 109.914 168.989 109.122 168.989 107.826C168.989 107.25 169.145 106.752 169.457 106.332C169.781 105.912 170.225 105.588 170.789 105.36C171.353 105.132 172.001 105.018 172.733 105.018C173.357 105.018 173.957 105.108 174.533 105.288C175.109 105.456 175.601 105.714 176.009 106.062L175.397 107.538C175.049 107.25 174.629 107.022 174.137 106.854C173.657 106.686 173.195 106.602 172.751 106.602C172.163 106.602 171.725 106.704 171.437 106.908C171.161 107.112 171.023 107.382 171.023 107.718C171.023 108.246 171.365 108.57 172.049 108.69L173.849 109.032C174.629 109.176 175.217 109.44 175.613 109.824C176.021 110.208 176.225 110.724 176.225 111.372C176.225 112.248 175.883 112.938 175.199 113.442C174.515 113.934 173.603 114.18 172.463 114.18Z" fill="#F57C00"></path><path fill-rule="evenodd" clip-rule="evenodd" d="M80.9788 293.079C81.8325 293.098 82.6631 292.924 83.4831 292.724C84.8756 292.384 86.1545 291.753 87.4139 291.088C87.8494 290.858 88.2156 290.532 88.4617 290.087C88.9685 289.171 88.5973 288.122 87.625 287.797C87.0739 287.612 86.5028 287.505 85.9164 287.592C85.4325 287.664 84.9458 287.728 84.4685 287.834C82.2293 288.332 80.8084 289.741 80.0555 291.866C79.9678 292.113 79.9469 292.386 79.9121 292.649C79.8829 292.868 80.0736 293.068 80.3128 293.077C80.5344 293.085 80.7566 293.079 80.9788 293.079ZM99.2952 295.241C98.2179 295.279 96.8004 295.11 95.3792 295.019C95.2469 295.011 95.1152 294.985 94.9846 294.96C94.7725 294.92 94.5934 294.687 94.6085 294.478C94.6552 293.826 95.0882 293.336 95.6819 293.334C96.3042 293.331 96.9276 293.372 97.5491 293.417C99.9501 293.594 102.351 293.638 104.752 293.421C105.579 293.347 105.797 293.592 105.663 294.415C105.482 295.523 105.142 296.585 104.616 297.57C103.798 299.1 102.929 300.603 102.069 302.111C101.963 302.297 101.791 302.456 101.622 302.595C101.482 302.71 101.298 302.73 101.124 302.631C100.957 302.534 100.854 302.374 100.871 302.195C100.892 301.98 100.942 301.751 101.043 301.561C101.335 301.011 101.67 300.483 101.968 299.937C102.586 298.804 103.194 297.666 103.798 296.526C103.827 296.47 103.78 296.372 103.768 296.294C103.69 296.32 103.593 296.324 103.538 296.374C102.28 297.526 100.853 298.423 99.3409 299.199C97.4196 300.184 95.3792 300.777 93.2513 301.095C92.2392 301.246 91.2298 301.421 90.2141 301.54C88.3925 301.752 86.5701 301.758 84.7655 301.381C83.6698 301.153 82.6312 300.763 81.6647 300.189C79.9609 299.177 78.9023 297.71 78.5169 295.762C78.4824 295.588 78.4724 295.406 78.4211 295.237C78.3535 295.011 78.1978 294.845 77.9587 294.808C77.3876 294.721 76.8115 294.664 76.2409 294.573C73.2691 294.098 70.9642 292.527 69.1495 290.19C67.6214 288.222 66.6357 286.002 66.1961 283.546C66.1181 283.109 66.0377 282.669 66.004 282.227C65.9675 281.749 66.1849 281.37 66.577 281.091C66.8493 280.897 67.2595 281.027 67.3221 281.344C67.434 281.911 67.5106 282.486 67.6384 283.049C68.2106 285.573 69.3116 287.827 71.0931 289.727C71.7354 290.413 72.451 291.011 73.2368 291.526C74.6906 292.478 76.3144 292.89 78.0227 293.03C78.2814 293.052 78.4353 292.933 78.5136 292.681C78.606 292.383 78.6823 292.081 78.7773 291.784C79.8125 288.547 82.0518 286.695 85.3522 286.048C86.1519 285.891 86.9449 285.837 87.7312 286.069C88.1115 286.182 88.4986 286.315 88.8383 286.514C89.7825 287.067 90.2227 288.061 90.02 289.135C89.8245 290.172 89.3275 291.054 88.5788 291.794C88.0361 292.331 87.414 292.761 86.7388 293.11C85.0219 293.998 83.2112 294.578 81.2785 294.758C80.9266 294.791 80.5769 294.857 80.2282 294.92C80.0629 294.95 79.9595 295.174 80.0158 295.343C80.0442 295.427 80.069 295.513 80.0996 295.596C80.6668 297.142 81.7394 298.217 83.2048 298.925C84.5923 299.595 86.0806 299.837 87.5975 299.949C89.0279 300.054 90.4435 299.882 91.8549 299.683C92.8676 299.541 93.8745 299.356 94.8861 299.201C95.6841 299.08 96.4609 298.87 97.1799 298.515C98.5752 297.824 99.9576 297.106 101.326 296.364C101.75 296.134 102.113 295.792 102.5 295.496C102.522 295.479 102.52 295.414 102.511 295.375C102.502 295.342 102.471 295.29 102.445 295.287C102.27 295.266 102.093 295.244 101.916 295.243C101.16 295.238 100.403 295.241 99.2952 295.241Z" fill="#F57C00"></path><path d="M12.962 282.24L14.582 278.64L10.928 270.198H13.322L15.788 276.354L18.308 270.198H20.576L15.284 282.24H12.962ZM21.5322 275.076V273.276H26.8962V275.076H21.5322ZM29.2889 268.308V266.112H31.8089V268.308H29.2889ZM29.4329 279V270.198H31.6829V279H29.4329ZM34.1708 279V270.198H36.3668V271.566C36.6668 271.062 37.0688 270.678 37.5728 270.414C38.0888 270.15 38.6648 270.018 39.3008 270.018C41.3768 270.018 42.4148 271.224 42.4148 273.636V279H40.1648V273.744C40.1648 273.06 40.0328 272.562 39.7688 272.25C39.5168 271.938 39.1208 271.782 38.5808 271.782C37.9208 271.782 37.3928 271.992 36.9968 272.412C36.6128 272.82 36.4208 273.366 36.4208 274.05V279H34.1708ZM48.8821 279.18C46.5541 279.18 45.3901 278.028 45.3901 275.724V271.89H43.6981V270.198H45.3901V267.57H47.6401V270.198H50.3041V271.89H47.6401V275.598C47.6401 276.174 47.7661 276.606 48.0181 276.894C48.2701 277.182 48.6781 277.326 49.2421 277.326C49.4101 277.326 49.5841 277.308 49.7641 277.272C49.9441 277.224 50.1301 277.176 50.3221 277.128L50.6641 278.784C50.4481 278.904 50.1721 279 49.8361 279.072C49.5121 279.144 49.1941 279.18 48.8821 279.18ZM56.1584 279.18C55.1624 279.18 54.3044 278.994 53.5844 278.622C52.8644 278.25 52.3064 277.722 51.9104 277.038C51.5264 276.354 51.3344 275.544 51.3344 274.608C51.3344 273.696 51.5204 272.898 51.8924 272.214C52.2764 271.53 52.7984 270.996 53.4584 270.612C54.1304 270.216 54.8924 270.018 55.7444 270.018C56.9924 270.018 57.9764 270.414 58.6964 271.206C59.4284 271.998 59.7944 273.078 59.7944 274.446V275.112H53.4944C53.6624 276.684 54.5624 277.47 56.1944 277.47C56.6864 277.47 57.1784 277.398 57.6704 277.254C58.1624 277.098 58.6124 276.858 59.0204 276.534L59.6504 278.046C59.2304 278.394 58.7024 278.67 58.0664 278.874C57.4304 279.078 56.7944 279.18 56.1584 279.18ZM55.8344 271.548C55.1744 271.548 54.6404 271.752 54.2324 272.16C53.8244 272.568 53.5784 273.12 53.4944 273.816H57.9224C57.8744 273.084 57.6704 272.526 57.3104 272.142C56.9624 271.746 56.4704 271.548 55.8344 271.548ZM61.7263 279V270.198H63.9223V271.746C64.3543 270.702 65.2783 270.126 66.6943 270.018L67.3783 269.964L67.5223 271.872L66.2263 271.998C64.7503 272.142 64.0123 272.898 64.0123 274.266V279H61.7263ZM72.8525 279.18C71.9285 279.18 71.1245 278.994 70.4405 278.622C69.7565 278.238 69.2285 277.698 68.8565 277.002C68.4845 276.306 68.2985 275.49 68.2985 274.554C68.2985 273.618 68.4845 272.814 68.8565 272.142C69.2285 271.458 69.7565 270.936 70.4405 270.576C71.1245 270.204 71.9285 270.018 72.8525 270.018C73.4165 270.018 73.9745 270.108 74.5265 270.288C75.0785 270.468 75.5345 270.72 75.8945 271.044L75.2285 272.61C74.9165 272.334 74.5625 272.124 74.1665 271.98C73.7825 271.836 73.4105 271.764 73.0505 271.764C72.2705 271.764 71.6645 272.01 71.2325 272.502C70.8125 272.982 70.6025 273.672 70.6025 274.572C70.6025 275.46 70.8125 276.162 71.2325 276.678C71.6645 277.182 72.2705 277.434 73.0505 277.434C73.3985 277.434 73.7705 277.362 74.1665 277.218C74.5625 277.074 74.9165 276.858 75.2285 276.57L75.8945 278.154C75.5345 278.466 75.0725 278.718 74.5085 278.91C73.9565 279.09 73.4045 279.18 72.8525 279.18ZM81.5869 279.18C80.5909 279.18 79.7329 278.994 79.0129 278.622C78.2929 278.25 77.7349 277.722 77.3389 277.038C76.9549 276.354 76.7629 275.544 76.7629 274.608C76.7629 273.696 76.9489 272.898 77.3209 272.214C77.7049 271.53 78.2269 270.996 78.8869 270.612C79.5589 270.216 80.3209 270.018 81.1729 270.018C82.4209 270.018 83.4049 270.414 84.1249 271.206C84.8569 271.998 85.2229 273.078 85.2229 274.446V275.112H78.9229C79.0909 276.684 79.9909 277.47 81.6229 277.47C82.1149 277.47 82.6069 277.398 83.0989 277.254C83.5909 277.098 84.0409 276.858 84.4489 276.534L85.0789 278.046C84.6589 278.394 84.1309 278.67 83.4949 278.874C82.8589 279.078 82.2229 279.18 81.5869 279.18ZM81.2629 271.548C80.6029 271.548 80.0689 271.752 79.6609 272.16C79.2529 272.568 79.0069 273.12 78.9229 273.816H83.3509C83.3029 273.084 83.0989 272.526 82.7389 272.142C82.3909 271.746 81.8989 271.548 81.2629 271.548ZM87.1548 282.24V270.198H89.3508V271.602C89.6028 271.122 89.9808 270.738 90.4848 270.45C91.0008 270.162 91.5828 270.018 92.2308 270.018C92.9988 270.018 93.6708 270.204 94.2468 270.576C94.8348 270.948 95.2908 271.476 95.6148 272.16C95.9388 272.832 96.1008 273.642 96.1008 274.59C96.1008 275.526 95.9388 276.342 95.6148 277.038C95.2908 277.722 94.8408 278.25 94.2648 278.622C93.6888 278.994 93.0108 279.18 92.2308 279.18C91.6068 279.18 91.0428 279.048 90.5388 278.784C90.0468 278.508 89.6688 278.142 89.4048 277.686V282.24H87.1548ZM91.6008 277.47C92.2728 277.47 92.8128 277.23 93.2208 276.75C93.6288 276.258 93.8328 275.538 93.8328 274.59C93.8328 273.63 93.6288 272.916 93.2208 272.448C92.8128 271.968 92.2728 271.728 91.6008 271.728C90.9288 271.728 90.3888 271.968 89.9808 272.448C89.5728 272.916 89.3688 273.63 89.3688 274.59C89.3688 275.538 89.5728 276.258 89.9808 276.75C90.3888 277.23 90.9288 277.47 91.6008 277.47ZM102.042 279.18C99.7138 279.18 98.5498 278.028 98.5498 275.724V271.89H96.8578V270.198H98.5498V267.57H100.8V270.198H103.464V271.89H100.8V275.598C100.8 276.174 100.926 276.606 101.178 276.894C101.43 277.182 101.838 277.326 102.402 277.326C102.57 277.326 102.744 277.308 102.924 277.272C103.104 277.224 103.29 277.176 103.482 277.128L103.824 278.784C103.608 278.904 103.332 279 102.996 279.072C102.672 279.144 102.354 279.18 102.042 279.18Z" fill="#F57C00"></path><path fill-rule="evenodd" clip-rule="evenodd" d="M191.862 318.598C191.015 318.707 190.171 318.623 189.334 318.511C187.914 318.321 186.575 317.828 185.252 317.3C184.795 317.118 184.396 316.832 184.104 316.416C183.503 315.559 183.761 314.477 184.694 314.05C185.222 313.808 185.779 313.641 186.371 313.666C186.86 313.686 187.35 313.698 187.836 313.753C190.116 314.011 191.678 315.261 192.652 317.294C192.765 317.53 192.815 317.8 192.877 318.057C192.93 318.273 192.761 318.491 192.524 318.526C192.305 318.558 192.083 318.575 191.862 318.598ZM173.878 322.689C174.953 322.612 176.345 322.294 177.748 322.054C177.879 322.031 178.007 321.991 178.135 321.953C178.341 321.891 178.495 321.64 178.458 321.434C178.342 320.791 177.859 320.349 177.269 320.41C176.65 320.473 176.034 320.58 175.421 320.691C173.052 321.121 170.67 321.419 168.259 321.458C167.429 321.471 167.238 321.739 167.459 322.543C167.756 323.625 168.207 324.645 168.834 325.568C169.809 327.004 170.832 328.406 171.847 329.814C171.973 329.988 172.161 330.128 172.343 330.248C172.495 330.348 172.681 330.349 172.842 330.231C172.999 330.117 173.084 329.947 173.048 329.771C173.004 329.559 172.93 329.337 172.81 329.159C172.461 328.643 172.072 328.154 171.718 327.642C170.983 326.581 170.258 325.514 169.537 324.444C169.501 324.391 169.539 324.289 169.542 324.21C169.622 324.227 169.719 324.221 169.779 324.266C171.152 325.278 172.666 326.019 174.252 326.629C176.267 327.405 178.359 327.779 180.508 327.869C181.531 327.912 182.553 327.98 183.576 327.99C185.409 328.008 187.222 327.821 188.977 327.255C190.042 326.912 191.033 326.414 191.934 325.741C193.521 324.554 194.418 322.983 194.595 321.005C194.61 320.828 194.601 320.647 194.634 320.473C194.677 320.242 194.815 320.059 195.049 319.998C195.607 319.851 196.174 319.733 196.732 319.581C199.636 318.795 201.762 316.989 203.319 314.472C204.63 312.354 205.374 310.041 205.551 307.552C205.583 307.109 205.616 306.664 205.603 306.221C205.588 305.741 205.332 305.387 204.912 305.151C204.621 304.988 204.227 305.161 204.198 305.482C204.147 306.058 204.132 306.637 204.065 307.211C203.763 309.782 202.907 312.14 201.337 314.218C200.771 314.967 200.123 315.638 199.396 316.234C198.051 317.335 196.48 317.916 194.796 318.237C194.541 318.285 194.376 318.183 194.271 317.941C194.148 317.655 194.04 317.362 193.914 317.078C192.542 313.969 190.119 312.364 186.768 312.07C185.957 311.999 185.162 312.029 184.405 312.344C184.039 312.496 183.668 312.669 183.351 312.903C182.471 313.553 182.139 314.588 182.454 315.635C182.758 316.645 183.346 317.469 184.169 318.126C184.765 318.602 185.429 318.964 186.138 319.24C187.939 319.941 189.801 320.326 191.742 320.3C192.095 320.295 192.45 320.324 192.804 320.35C192.971 320.362 193.098 320.574 193.06 320.748C193.04 320.835 193.025 320.922 193.003 321.008C192.603 322.606 191.65 323.788 190.268 324.648C188.96 325.461 187.505 325.859 186.009 326.131C184.597 326.387 183.172 326.366 181.747 326.318C180.725 326.284 179.704 326.207 178.682 326.16C177.876 326.123 177.081 325.998 176.328 325.72C174.868 325.181 173.417 324.614 171.977 324.021C171.531 323.838 171.135 323.536 170.719 323.283C170.695 323.268 170.69 323.203 170.695 323.164C170.7 323.129 170.725 323.075 170.751 323.069C170.923 323.029 171.096 322.988 171.272 322.969C172.024 322.884 172.777 322.806 173.878 322.689Z" fill="#F57C00"></path><path d="M196.762 302L192.946 293.198H195.34L197.788 299.354L200.326 293.198H202.576L198.706 302H196.762ZM207.974 302.18C206.978 302.18 206.12 301.994 205.4 301.622C204.68 301.25 204.122 300.722 203.726 300.038C203.342 299.354 203.15 298.544 203.15 297.608C203.15 296.696 203.336 295.898 203.708 295.214C204.092 294.53 204.614 293.996 205.274 293.612C205.946 293.216 206.708 293.018 207.56 293.018C208.808 293.018 209.792 293.414 210.512 294.206C211.244 294.998 211.61 296.078 211.61 297.446V298.112H205.31C205.478 299.684 206.378 300.47 208.01 300.47C208.502 300.47 208.994 300.398 209.486 300.254C209.978 300.098 210.428 299.858 210.836 299.534L211.466 301.046C211.046 301.394 210.518 301.67 209.882 301.874C209.246 302.078 208.61 302.18 207.974 302.18ZM207.65 294.548C206.99 294.548 206.456 294.752 206.048 295.16C205.64 295.568 205.394 296.12 205.31 296.816H209.738C209.69 296.084 209.486 295.526 209.126 295.142C208.778 294.746 208.286 294.548 207.65 294.548ZM213.542 302V293.198H215.738V294.746C216.17 293.702 217.094 293.126 218.51 293.018L219.194 292.964L219.338 294.872L218.042 294.998C216.566 295.142 215.828 295.898 215.828 297.266V302H213.542ZM225.283 302.18C222.955 302.18 221.791 301.028 221.791 298.724V294.89H220.099V293.198H221.791V290.57H224.041V293.198H226.705V294.89H224.041V298.598C224.041 299.174 224.167 299.606 224.419 299.894C224.671 300.182 225.079 300.326 225.643 300.326C225.811 300.326 225.985 300.308 226.165 300.272C226.345 300.224 226.531 300.176 226.723 300.128L227.065 301.784C226.849 301.904 226.573 302 226.237 302.072C225.913 302.144 225.595 302.18 225.283 302.18ZM232.559 302.18C231.563 302.18 230.705 301.994 229.985 301.622C229.265 301.25 228.707 300.722 228.311 300.038C227.927 299.354 227.735 298.544 227.735 297.608C227.735 296.696 227.921 295.898 228.293 295.214C228.677 294.53 229.199 293.996 229.859 293.612C230.531 293.216 231.293 293.018 232.145 293.018C233.393 293.018 234.377 293.414 235.097 294.206C235.829 294.998 236.195 296.078 236.195 297.446V298.112H229.895C230.063 299.684 230.963 300.47 232.595 300.47C233.087 300.47 233.579 300.398 234.071 300.254C234.563 300.098 235.013 299.858 235.421 299.534L236.051 301.046C235.631 301.394 235.103 301.67 234.467 301.874C233.831 302.078 233.195 302.18 232.559 302.18ZM232.235 294.548C231.575 294.548 231.041 294.752 230.633 295.16C230.225 295.568 229.979 296.12 229.895 296.816H234.323C234.275 296.084 234.071 295.526 233.711 295.142C233.363 294.746 232.871 294.548 232.235 294.548ZM236.85 302L240.54 297.446L237.084 293.198H239.712L241.836 295.916L243.96 293.198H246.588L243.114 297.464L246.822 302H244.176L241.818 299.03L239.478 302H236.85Z" fill="#F57C00"></path></svg> 